<?xml version="1.0" standalone="no"?>
<!DOCTYPE svg PUBLIC "-//W3C//DTD SVG 20010904//EN"
 "http://www.w3.org/TR/2001/REC-SVG-20010904/DTD/svg10.dtd">
<svg version="1.0" xmlns="http://www.w3.org/2000/svg"
 width="500px" height="500px" viewBox="0 0 275.000000 183.000000"
 preserveAspectRatio="xMidYMid meet">

<g transform="translate(0.000000,183.000000) scale(0.100000,-0.100000)"
fill="#000000" stroke="none">
<path d="M1258 1138 l-3 -123 -27 40 c-25 38 -25 41 -10 65 15 23 14 24 -2 11
-20 -17 -44 -57 -27 -47 5 4 17 -6 25 -22 31 -60 108 -151 163 -193 32 -23 62
-47 68 -51 5 -4 -21 -8 -58 -8 l-67 0 0 43 c0 32 -8 50 -30 77 l-29 35 -1 -77
0 -78 -46 0 -45 0 1 133 c3 259 4 247 -30 247 l-30 0 0 -93 0 -93 -37 -36
c-83 -78 -216 -168 -230 -155 -2 3 16 19 40 36 54 36 134 125 166 181 29 52
21 52 -13 0 -63 -96 -212 -220 -263 -220 -21 0 -23 -4 -23 -45 0 -42 2 -45 23
-41 12 3 67 7 122 11 55 3 126 8 158 12 l57 6 0 -92 0 -91 30 0 29 0 3 93 3
92 345 25 c258 19 327 26 275 30 -63 5 -77 10 -145 54 -41 28 -120 95 -174
149 -55 55 -89 85 -76 66 40 -58 193 -204 245 -235 l50 -29 -98 -3 c-92 -3
-102 -1 -145 24 -25 15 -65 45 -89 67 l-43 40 0 158 0 159 -30 0 -29 0 -3
-122z m-151 -325 c-3 -2 -49 -2 -103 -1 l-99 3 65 47 c36 25 81 63 100 83 l35
36 3 -82 c2 -45 1 -83 -1 -86z"/>
<path d="M1273 733 c-8 -3 -13 -23 -13 -49 0 -42 1 -44 30 -44 29 0 30 1 30
50 0 51 -9 59 -47 43z"/>
</g>
</svg>
